#!OML:ASF E:\motion texture\Top Level 1\Subject 1\Session 1\male.ASF
:FULLY-SPECIFIED
:DEGREES
303
root 23.7895 17.7323 4.98746 481.314 -79.5246 -481.284
lowerback 1.38879 0.620022 5.50858
upperback -1.43099 0.928437 4.40412
thorax -2.23912 0.359338 1.42292
lowerneck -20.7011 -4.04274 -6.28114
upperneck 17.2995 -5.16195 6.69401
head 9.19146 -2.1151 2.61466
rclavicle -1.83627e-014 -2.46493e-014
rhumerus -3.82776 24.6853 -86.0924
rradius 79.3474
rwrist -7.83507
rhand -17.5218 -10.0412
rfingers 7.12502
rthumb 8.73182 -39.8406
lclavicle -1.83627e-014 -2.46493e-014
lhumerus -54.3773 -5.22214 79.1659
lradius 24.778
lwrist -22.2841
lhand -9.37877 5.99415
lfingers 7.12502
lthumb 16.5818 35.3057
rfemur -11.5392 2.39552 35.9933
rtibia 27.0319
rfoot -190.51 -185.047
rtoes 19.0291
lfemur -46.5831 10.3619 -7.86515
ltibia 72.1662
lfoot 180.312 2.2103
ltoes -5.41603
304
root 23.678 17.7647 4.9792 482.679 -79.191 -482.889
lowerback 1.58694 0.902016 5.75038
upperback -1.31132 1.32069 4.32409
thorax -2.21407 0.552864 1.19109
lowerneck -20.6134 -4.2125 -6.39881
upperneck 17.2406 -5.39846 6.85009
head 9.181 -2.21879 2.65411
rclavicle -3.26752e-015 -1.74931e-014
rhumerus -1.62547 24.8113 -85.0985
rradius 80.0076
rwrist -8.12037
rhand -17.5022 -9.95879
rfingers 7.12502
rthumb 8.75075 -39.7574
lclavicle -3.26752e-015 -1.74931e-014
lhumerus -55.7101 -5.46126 77.9383
lradius 25.092
lwrist -21.5359
lhand -9.33836 5.89045
lfingers 7.12502
lthumb 16.6207 35.1988
rfemur -10.4363 2.58857 36.1943
rtibia 26.3348
rfoot -190.522 -184.925
rtoes 19.1091
lfemur -49.4245 10.9293 -8.10355
ltibia 69.7477
lfoot 179.995 2.63305
ltoes -5.17325
305
root 23.5652 17.794 4.97248 483.841 -78.8713 -484.295
lowerback 1.78877 1.17008 6.00179
upperback -1.19698 1.69575 4.24079
thorax -2.19229 0.737695 0.950281
lowerneck -20.5314 -4.37746 -6.51674
upperneck 17.1832 -5.6266 6.99978
head 9.17192 -2.31926 2.69254
rclavicle 3.42904e-015 -2.82274e-014
rhumerus 0.506492 24.8671 -84.0762
rradius 80.6121
rwrist -8.44004
rhand -17.4659 -9.89048
rfingers 7.12502
rthumb 8.78581 -39.6876
lclavicle 3.42904e-015 -2.82274e-014
lhumerus -57.0261 -5.73921 76.7289
lradius 25.4892
lwrist -20.7262
lhand -9.31733 5.77541
lfingers 7.12502
lthumb 16.641 35.082
rfemur -9.35815 2.76941 36.3781
rtibia 25.6872
rfoot -190.546 -184.82
rtoes 19.1679
lfemur -52.2081 11.4014 -8.37176
ltibia 67.5412
lfoot 179.671 3.02135
ltoes -5.10249
306
root 23.4516 17.8204 4.96688 484.754 -78.588 -485.446
lowerback 1.97255 1.41695 6.2474
upperback -1.08297 2.0413 4.15457
thorax -2.1573 0.908416 0.710437
lowerneck -20.4599 -4.54045 -6.64035
upperneck 17.1235 -5.84878 7.14675
head 9.16421 -2.41743 2.73167
rclavicle 6.69656e-015 7.15625e-015
rhumerus 2.58487 24.8584 -83.023
rradius 81.1633
rwrist -8.78688
rhand -17.3983 -9.86232
rfingers 7.12502
rthumb 8.85096 -39.6567
lclavicle 6.69656e-015 7.15625e-015
lhumerus -58.2911 -6.04105 75.5343
lradius 25.9364
lwrist -19.9697
lhand -9.2757 5.68074
lfingers 7.12502
lthumb 16.681 34.984
rfemur -8.32455 2.92586 36.535
rtibia 25.0913
rfoot -190.583 -184.742
rtoes 19.2026
lfemur -54.9511 11.7526 -8.67454
ltibia 65.5337
lfoot 179.362 3.40155
ltoes -5.12698
307
root 23.3372 17.8439 4.9621 485.363 -78.3525 -486.274
lowerback 2.14204 1.63628 6.47971
upperback -0.98604 2.35001 4.07194
thorax -2.12999 1.06079 0.482743
lowerneck -20.3722 -4.69728 -6.7813
upperneck 17.0591 -6.06003 7.30247
head 9.15273 -2.51122 2.77838
rclavicle 8.43592e-015 -4.19436e-014
rhumerus 4.5799 24.7932 -81.9507
rradius 81.6533
rwrist -9.123
rhand -17.3128 -9.8701
rfingers 7.12502
rthumb 8.9335 -39.661
lclavicle 8.43592e-015 -4.19436e-014
lhumerus -59.5093 -6.35531 74.355
lradius 26.3995
lwrist -19.3575
lhand -9.19691 5.54458
lfingers 7.12502
lthumb 16.7569 34.8414
rfemur -7.3455 3.04366 36.6687
rtibia 24.5423
rfoot -190.632 -184.697
rtoes 19.2093
lfemur -57.6611 11.9626 -9.00136
ltibia 63.7155
lfoot 179.074 3.77474
ltoes -5.22463
308
root 23.2212 17.865 4.95821 485.735 -78.1635 -486.844
lowerback 2.275 1.83233 6.69711
upperback -0.899006 2.62471 3.99325
thorax -2.09122 1.19676 0.269282
lowerneck -20.2824 -4.85052 -6.91949
upperneck 17.0003 -6.26333 7.43859
head 9.14202 -2.6033 2.81904
rclavicle 1.67228e-014 6.67916e-014
rhumerus 6.49316 24.6798 -80.861
rradius 82.082
rwrist -9.4463
rhand -17.2355 -9.89103
rfingers 7.12502
rthumb 9.00813 -39.6787
lclavicle 1.67228e-014 6.67916e-014
lhumerus -60.6628 -6.68735 73.2086
lradius 26.8573
lwrist -18.8867
lhand -9.07743 5.37884
lfingers 7.12502
lthumb 16.8719 34.6659
rfemur -6.42044 3.11546 36.7765
rtibia 24.0354
rfoot -190.692 -184.677
rtoes 19.1961
lfemur -60.3272 12.0405 -9.34748
ltibia 62.0862
lfoot 178.841 4.14216
ltoes -5.29192
309
root 23.1041 17.8841 4.95501 485.839 -78.0249 -487.121
lowerback 2.37304 2.00213 6.89899
upperback -0.822108 2.86137 3.92193
thorax -2.04336 1.31427 0.0743778
lowerneck -20.2001 -5.00163 -7.06392
upperneck 16.9513 -6.45998 7.56531
head 9.13597 -2.6935 2.85837
rclavicle 1.72943e-014 4.6118e-014
rhumerus 8.32876 24.5202 -79.7589
rradius 82.4404
rwrist -9.7341
rhand -17.1407 -9.9276
rfingers 7.12502
rthumb 9.09954 -39.7113
lclavicle 1.72943e-014 4.6118e-014
lhumerus -61.7364 -7.03948 72.115
lradius 27.2856
lwrist -18.5337
lhand -8.91692 5.19218
lfingers 7.12502
lthumb 17.0264 34.466
rfemur -5.55171 3.12609 36.8633
rtibia 23.5656
rfoot -190.76 -184.684
rtoes 19.1447
lfemur -62.9438 11.9818 -9.69968
ltibia 60.64
lfoot 178.67 4.50882
ltoes -5.32508
310
root 22.9855 17.9015 4.9525 485.73 -77.9238 -487.166
lowerback 2.45242 2.15123 7.08379
upperback -0.764552 3.06949 3.86283
thorax -2.00582 1.41734 -0.09706
lowerneck -20.1058 -5.1485 -7.21424
upperneck 16.9138 -6.64804 7.67916
head 9.13129 -2.78173 2.89566
rclavicle -2.4817e-014 -2.10712e-014
rhumerus 10.0541 24.3247 -78.6585
rradius 82.7316
rwrist -9.98023
rhand -17.0455 -9.97985
rfingers 7.12502
rthumb 9.19143 -39.7595
lclavicle -2.4817e-014 -2.10712e-014
lhumerus -62.7492 -7.41907 71.0971
lradius 27.6771
lwrist -18.2611
lhand -8.7263 5.00358
lfingers 7.12502
lthumb 17.2099 34.2615
rfemur -4.72761 3.08095 36.936
rtibia 23.1295
rfoot -190.834 -184.711
rtoes 19.0708
lfemur -65.4849 11.8117 -10.043
ltibia 59.3806
lfoot 178.579 4.86436
ltoes -5.2832
311
root 22.8657 17.9177 4.95055 485.447 -77.8556 -487.023
lowerback 2.51423 2.28182 7.24824
upperback -0.718918 3.2514 3.81657
thorax -1.97228 1.5074 -0.242601
lowerneck -20.0173 -5.29171 -7.36254
upperneck 16.8915 -6.82813 7.7731
head 9.13189 -2.868 2.92688
rclavicle -5.65915e-015 4.59193e-014
rhumerus 11.6788 24.098 -77.5662
rradius 82.9496
rwrist -10.1819
rhand -16.9724 -10.0178
rfingers 7.12502
rthumb 9.26202 -39.7943
lclavicle -5.65915e-015 4.59193e-014
lhumerus -63.6884 -7.81892 70.1657
lradius 28.0227
lwrist -18.0331
lhand -8.51699 4.82952
lfingers 7.12502
lthumb 17.4113 34.0697
rfemur -3.94048 2.9847 36.9953
rtibia 22.725
rfoot -190.91 -184.751
rtoes 18.9777
lfemur -67.9302 11.5487 -10.3694
ltibia 58.3076
lfoot 178.579 5.20486
ltoes -5.12028
